<?xml version="1.0" encoding="UTF-8" standalone="no"?>
<svg
   enable-background="new 0 0 1080 1080"
   version="1.1"
   viewBox="0 0 1080 1080"
   xml:space="preserve"
   id="svg21"
   sodipodi:docname="mikaze2.svg"
   width="100"
   height="100"
   inkscape:version="1.1.2 (0a00cf5339, 2022-02-04)"
   xmlns:inkscape="http://www.inkscape.org/namespaces/inkscape"
   xmlns:sodipodi="http://sodipodi.sourceforge.net/DTD/sodipodi-0.dtd"
   xmlns:xlink="http://www.w3.org/1999/xlink"
   xmlns="http://www.w3.org/2000/svg"
   xmlns:svg="http://www.w3.org/2000/svg"
   xmlns:rdf="http://www.w3.org/1999/02/22-rdf-syntax-ns#"
   xmlns:cc="http://creativecommons.org/ns#"
   xmlns:dc="http://purl.org/dc/elements/1.1/"><defs
   id="defs25" /><sodipodi:namedview
   id="namedview23"
   pagecolor="#ffffff"
   bordercolor="#666666"
   borderopacity="1.0"
   inkscape:pageshadow="2"
   inkscape:pageopacity="0.0"
   inkscape:pagecheckerboard="0"
   showgrid="false"
   scale-x="10.8"
   inkscape:zoom="0.58240741"
   inkscape:cx="539.14149"
   inkscape:cy="539.14149"
   inkscape:window-width="1920"
   inkscape:window-height="1106"
   inkscape:window-x="1600"
   inkscape:window-y="0"
   inkscape:window-maximized="1"
   inkscape:current-layer="svg21" /><metadata
   id="metadata2"><rdf:RDF><cc:Work
       rdf:about=""><dc:format>image/svg+xml</dc:format><dc:type
         rdf:resource="http://purl.org/dc/dcmitype/StillImage" /></cc:Work></rdf:RDF></metadata>


<text
   transform="matrix(3.7795,0,0,3.7795,607.36,1189.4)"
   fill="#000000"
   font-family="KacstFarsi"
   font-size="10.583px"
   letter-spacing="0px"
   word-spacing="0px"
   style="line-height:1.25;white-space:pre;shape-inside:url(#rect859)"
   xml:space="preserve"
   id="text4" /><text
   transform="matrix(3.7795,0,0,3.7795,607.36,1189.4)"
   fill="#000000"
   font-family="KacstFarsi"
   font-size="10.583px"
   letter-spacing="0px"
   word-spacing="0px"
   style="line-height:1.25;white-space:pre;shape-inside:url(#rect865)"
   xml:space="preserve"
   id="text6" /><g
   id="g19"><text
     x="197.25423"
     y="523.25598"
     fill="#000000"
     font-family="KacstFarsi"
     font-size="40px"
     style="line-height:1.25"
     xml:space="preserve"
     id="text10"><tspan
       x="197.25423"
       y="523.25598"
       id="tspan8" /></text><path
     d="m 901.52,112.19 -0.8789,0.006 c -96.168,0.66898 -192.34,1.3373 -288.5,2.0078 27.532,31.157 55.064,62.315 82.596,93.473 8.6973,-0.25942 17.395,-0.5224 26.092,-0.7832 -60.503,53.061 -121.01,106.12 -181.51,159.18 -53.197,-51.002 -106.39,-102 -159.59,-153.01 57.257,-0.76891 114.51,-1.5376 171.77,-2.3066 -32.343,-31.809 -64.685,-63.62 -97.027,-95.43 -118.08,-0.17147 -236.17,-0.33961 -354.25,-0.50976 26.424,34.08 52.843,68.163 79.266,102.24 23.294,-0.19968 46.587,-0.4026 69.881,-0.60352 1.4104,246.05 2.8189,492.11 4.2305,738.16 34.605,1.1374 69.21,2.2766 103.81,3.416 0.45315,-206.32 0.90906,-412.64 1.3633,-618.97 46.273,43.809 92.542,87.622 138.82,131.43 27.897,0.0367 55.794,0.0718 83.691,0.10547 53.184,-44.916 106.37,-89.833 159.55,-134.75 0.71259,206.8 1.4276,413.6 2.1387,620.4 35.755,0.59997 71.51,1.2006 107.27,1.7988 1.0175,-252.14 2.0366,-504.28 3.0547,-756.42 44.294,0.47614 88.587,0.95045 132.88,1.4277 -28.216,-30.293 -56.435,-60.584 -84.65,-90.877 z"
     stroke="#000000"
     stroke-width="1.5426"
     xlink:href="#a"
     id="path12" /><path
     id="a"
     d="m 901.51,110.19 c -97.926,0.68135 -195.85,1.362 -293.78,2.0449 28.709,32.489 57.418,64.979 86.127,97.469 7.155,-0.21269 14.31,-0.42862 21.465,-0.64257 -58.648,51.434 -117.3,102.87 -175.94,154.3 -51.581,-49.453 -103.16,-98.906 -154.74,-148.36 57.228,-0.76826 114.46,-1.5362 171.68,-2.3047 -33.676,-33.121 -67.351,-66.242 -101.03,-99.363 -119.72,-0.17407 -239.44,-0.34484 -359.16,-0.51757 27.461,35.418 54.919,70.839 82.379,106.26 22.955,-0.19645 45.91,-0.39608 68.865,-0.59375 1.4104,246.03 2.8189,492.05 4.2305,738.08 35.933,1.181 71.866,2.3638 107.8,3.5469 0.4512,-205.46 0.90516,-410.93 1.3574,-616.39 45.344,42.929 90.684,85.862 136.03,128.79 28.406,0.0374 56.812,0.0731 85.219,0.10742 52.279,-44.151 104.56,-88.304 156.84,-132.46 0.70933,206.02 1.421,412.05 2.1289,618.07 37.084,0.62212 74.168,1.2449 111.25,1.8652 1.0175,-252.14 2.0366,-504.29 3.0547,-756.43 45.177,0.48589 90.354,0.97003 135.53,1.457 -29.475,-31.645 -58.953,-63.288 -88.428,-94.934 l -0.87891,0.006 z"
     fill="#ffffff"
     stroke="#000000"
     stroke-width="1.5426" /><text
     x="299.07422"
     y="704.24158"
     fill="#000000"
     font-family="sans-serif"
     font-size="40px"
     style="line-height:1.25"
     xml:space="preserve"
     id="text17"><tspan
       id="tspan15" /></text></g></svg>
